<mxfile host="app.diagrams.net" modified="2021-06-04T20:23:24.018Z" agent="5.0 (Macintosh; Intel Mac OS X 10_15_7) AppleWebKit/537.36 (KHTML, like Gecko) Chrome/91.0.4472.77 Safari/537.36" etag="XFIZ2KOktZqaBA8aWTQE" version="14.7.5" type="github">
  <diagram id="8EniQSuFM4nlBwsfWyXs" name="Page-1">
    <mxGraphModel dx="946" dy="482" grid="1" gridSize="10" guides="1" tooltips="1" connect="1" arrows="1" fold="1" page="1" pageScale="1" pageWidth="827" pageHeight="1169" math="0" shadow="0">
      <root>
        <mxCell id="0" />
        <mxCell id="1" parent="0" />
        <mxCell id="10OpEtfYLtjAgeZLwmu4-7" style="edgeStyle=orthogonalEdgeStyle;rounded=0;orthogonalLoop=1;jettySize=auto;html=1;exitX=0.5;exitY=1;exitDx=0;exitDy=0;entryX=0.5;entryY=0;entryDx=0;entryDy=0;" edge="1" parent="1" source="10OpEtfYLtjAgeZLwmu4-1" target="10OpEtfYLtjAgeZLwmu4-2">
          <mxGeometry relative="1" as="geometry" />
        </mxCell>
        <mxCell id="10OpEtfYLtjAgeZLwmu4-1" value="文献归纳法" style="rounded=0;whiteSpace=wrap;html=1;" vertex="1" parent="1">
          <mxGeometry x="160" y="120" width="120" height="40" as="geometry" />
        </mxCell>
        <mxCell id="10OpEtfYLtjAgeZLwmu4-6" style="edgeStyle=orthogonalEdgeStyle;rounded=0;orthogonalLoop=1;jettySize=auto;html=1;exitX=0.5;exitY=1;exitDx=0;exitDy=0;entryX=0.5;entryY=0;entryDx=0;entryDy=0;" edge="1" parent="1" source="10OpEtfYLtjAgeZLwmu4-2" target="10OpEtfYLtjAgeZLwmu4-4">
          <mxGeometry relative="1" as="geometry" />
        </mxCell>
        <mxCell id="10OpEtfYLtjAgeZLwmu4-19" style="edgeStyle=orthogonalEdgeStyle;rounded=0;orthogonalLoop=1;jettySize=auto;html=1;exitX=0.5;exitY=1;exitDx=0;exitDy=0;entryX=0.154;entryY=0;entryDx=0;entryDy=0;entryPerimeter=0;" edge="1" parent="1" source="10OpEtfYLtjAgeZLwmu4-2" target="10OpEtfYLtjAgeZLwmu4-3">
          <mxGeometry relative="1" as="geometry">
            <Array as="points">
              <mxPoint x="220" y="240" />
              <mxPoint x="180" y="240" />
            </Array>
          </mxGeometry>
        </mxCell>
        <mxCell id="10OpEtfYLtjAgeZLwmu4-25" value="X" style="edgeLabel;html=1;align=center;verticalAlign=middle;resizable=0;points=[];fontSize=20;" vertex="1" connectable="0" parent="10OpEtfYLtjAgeZLwmu4-19">
          <mxGeometry x="0.4143" y="-2" relative="1" as="geometry">
            <mxPoint as="offset" />
          </mxGeometry>
        </mxCell>
        <mxCell id="10OpEtfYLtjAgeZLwmu4-2" value="提出假设，构建模型" style="rounded=0;whiteSpace=wrap;html=1;" vertex="1" parent="1">
          <mxGeometry x="140" y="180" width="160" height="40" as="geometry" />
        </mxCell>
        <mxCell id="10OpEtfYLtjAgeZLwmu4-17" style="edgeStyle=orthogonalEdgeStyle;rounded=0;orthogonalLoop=1;jettySize=auto;html=1;exitX=0.5;exitY=1;exitDx=0;exitDy=0;entryX=0.5;entryY=0;entryDx=0;entryDy=0;" edge="1" parent="1" source="10OpEtfYLtjAgeZLwmu4-3" target="10OpEtfYLtjAgeZLwmu4-16">
          <mxGeometry relative="1" as="geometry" />
        </mxCell>
        <mxCell id="10OpEtfYLtjAgeZLwmu4-3" value="问卷调查" style="rounded=0;whiteSpace=wrap;html=1;" vertex="1" parent="1">
          <mxGeometry x="160" y="320" width="130" height="40" as="geometry" />
        </mxCell>
        <mxCell id="10OpEtfYLtjAgeZLwmu4-24" style="edgeStyle=orthogonalEdgeStyle;rounded=0;orthogonalLoop=1;jettySize=auto;html=1;exitX=0.5;exitY=1;exitDx=0;exitDy=0;entryX=0.885;entryY=-0.025;entryDx=0;entryDy=0;entryPerimeter=0;" edge="1" parent="1" source="10OpEtfYLtjAgeZLwmu4-4" target="10OpEtfYLtjAgeZLwmu4-3">
          <mxGeometry relative="1" as="geometry" />
        </mxCell>
        <mxCell id="10OpEtfYLtjAgeZLwmu4-4" value="访谈法，假设/模型修正" style="rounded=0;whiteSpace=wrap;html=1;" vertex="1" parent="1">
          <mxGeometry x="210" y="250" width="130" height="30" as="geometry" />
        </mxCell>
        <mxCell id="10OpEtfYLtjAgeZLwmu4-14" value="No" style="text;html=1;align=center;verticalAlign=middle;resizable=0;points=[];autosize=1;strokeColor=none;" vertex="1" parent="1">
          <mxGeometry x="250" y="220" width="30" height="20" as="geometry" />
        </mxCell>
        <mxCell id="10OpEtfYLtjAgeZLwmu4-23" style="edgeStyle=orthogonalEdgeStyle;rounded=0;orthogonalLoop=1;jettySize=auto;html=1;exitX=0.5;exitY=1;exitDx=0;exitDy=0;entryX=0.5;entryY=0;entryDx=0;entryDy=0;" edge="1" parent="1" source="10OpEtfYLtjAgeZLwmu4-16" target="10OpEtfYLtjAgeZLwmu4-22">
          <mxGeometry relative="1" as="geometry" />
        </mxCell>
        <mxCell id="10OpEtfYLtjAgeZLwmu4-16" value="数据分析" style="rounded=0;whiteSpace=wrap;html=1;" vertex="1" parent="1">
          <mxGeometry x="160" y="380" width="130" height="40" as="geometry" />
        </mxCell>
        <mxCell id="10OpEtfYLtjAgeZLwmu4-20" value="Yes" style="text;html=1;align=center;verticalAlign=middle;resizable=0;points=[];autosize=1;strokeColor=none;" vertex="1" parent="1">
          <mxGeometry x="160" y="220" width="40" height="20" as="geometry" />
        </mxCell>
        <mxCell id="10OpEtfYLtjAgeZLwmu4-22" value="研究结论" style="rounded=0;whiteSpace=wrap;html=1;" vertex="1" parent="1">
          <mxGeometry x="160" y="440" width="130" height="40" as="geometry" />
        </mxCell>
      </root>
    </mxGraphModel>
  </diagram>
</mxfile>
